<svg version="1.1" id="svg2" width="609" height="191" viewBox="0 0 609 191" xmlns="http://www.w3.org/2000/svg" xmlns:svg="http://www.w3.org/2000/svg">
  <defs id="defs6"/>
  <g id="layer1" style="display:inline">
    <path style="display:inline;fill:#000000;stroke-width:0.225239;stroke-opacity:0.28629;stop-color:#000000" d="m 158.60241,9 h -8.99959 L 151,0.75 h 28 L 177.60282,9 h -9.00041 l -3.85282,22.75 h -10 z" id="path883"/>
    <path style="display:inline;fill:#000000;stroke-width:0.225239;stroke-opacity:0.28629;stop-color:#000000" d="m 183,0.75 h 17 c 3.70335,0 10,0.6528065 10,6.5 0,6.542808 -3.08053,8.279961 -6.25,10 0.82312,0.309359 3.75,1.454905 3.75,5 0,3.545095 -1,5.171686 -1,6.5 0,1.328314 1,3 1,3 h -10.75 c 0,-3.211572 0.75,-4.133392 0.75,-8 0,-2.434346 -1.77415,-2.75 -2.5,-2.75 h -5.25 l -2,10.75 h -10 z M 200.125,11 C 200.23559,8.8541446 198.97001,8 197,8 h -5.22783 l -1.05847,6.25 H 195 c 2.64132,0 5.00338,-0.890241 5.125,-3.25 z" id="path959"/>
    <path style="display:inline;fill:#000000;stroke-width:0.225239;stroke-opacity:0.28629;stop-color:#000000" d="m 226,0.75 h 10.5 l 5.5,31 h -10.25 l -0.368,-4 h -10.20097 l -1.93103,4 h -9.75 z m 3.75,9.25 -5.431,11.25 h 6.46548 z" id="path998"/>
    <path style="display:inline;fill:#000000;stroke-width:0.225239;stroke-opacity:0.28629;stop-color:#000000" d="M 245.25,19.75 C 245.25,11.688877 251.77261,0 264,0 c 10.04997,0 14.11179,6.4065048 13.25,12.5 h -9.5 c 0.40802,-2.008512 -1.47324,-5.125 -4.5,-5.125 -0.95829,0 -7.75,-0.2615726 -7.75,12.875 0,2.366604 0.54437,4.75 4.5,4.75 3.98294,0 5.87314,-2.445603 6.5,-5.25 h 9.75 c -1.77789,8.831426 -9.03421,12.75 -16.75,12.75 -13.65991,0 -14.25,-9.99454 -14.25,-12.75 z" id="path1037"/>
    <path style="display:inline;fill:#000000;stroke-width:0.225239;stroke-opacity:0.28629;stop-color:#000000" d="m 284.5,0.75 h 10.25 L 293,10.39564 304,0.75 h 11.49963 L 302.30685,12.318828 311.25,31.75 H 299.5 L 293.93547,19.659705 291.131,22.119318 289.5,31.75 h -10.25 z" id="path1076"/>
    <path style="display:inline;fill:#000000;stroke-width:0.225239;stroke-opacity:0.28629;stop-color:#000000" d="m 320,0.75 h 12.25 l 2,19.5 8.75,-19.5 h 12.25 l -5.25,31 h -9 L 344.03108,13.852177 336,31.75 h -7.19872 L 326.89601,13.173555 323.75,31.75 h -9 z" id="path1115"/>
    <path style="display:inline;fill:#000000;stroke-width:0.225239;stroke-opacity:0.28629;stop-color:#000000" d="M 394.5,0.75 H 404 L 411.68652,17.362918 414.5,0.75 h 9.5 l -5.25,31 h -9.5 L 401.56347,15.137081 398.75,31.75 h -9.5 z" id="path1193"/>
    <path style="display:inline;fill:#000000;stroke-width:0.225239;stroke-opacity:0.28629;stop-color:#000000" d="m 429.75,0.75 h 10 l -5.25,31 h -10 z" id="path1232"/>
    <path style="display:inline;fill:#000000;stroke-width:0.518033;stroke-opacity:0.28629;stop-color:#000000" d="M 87.994159,129.75 C 88.39771,127.51094 89.69724,115 78.45,115 H 0 L 12.5,45.75 h 122.25 c 15.9009,0 17.89362,10.635527 16.75,17 l -23,128 H 77 Z" id="path1310-9"/>
    <path style="display:inline;fill:#000000;stroke-width:0.518033;stroke-opacity:0.28629;stop-color:#000000" d="M 544.99416,129.75 C 545.39771,127.51094 546.69724,115 535.45,115 H 457 l 12.5,-69.25 h 122.25 c 15.9009,0 17.89362,10.635527 16.75,17 l -23,128 H 534 Z" id="path1310-9-8"/>
    <path style="display:inline;fill:#000000;stroke-width:0.518033;stroke-opacity:0.28629;stop-color:#000000" d="m 161.75,61.75 c 0.55909,-3.102042 5.59706,-16 22.25,-16 H 307.25 L 294.75,115 H 216.5 c -8.52253,0 -13.93298,7.41026 -15.07561,13.75 l -11.17439,62 H 138.5 Z" id="path1388"/>
    <path style="display:inline;fill:#000000;stroke-width:0.518033;stroke-opacity:0.28629;stop-color:#000000" d="m 314,61.75 c 0.55909,-3.102042 5.59706,-16 22.25,-16 H 459.5 L 447,115 h -78.25 c -8.52253,0 -13.93298,7.41026 -15.07561,13.75 l -11.17439,62 h -51.75 z" id="path1388-5"/>
    <path style="display:inline;fill:#000000;stroke-width:0.225239;stroke-opacity:0.28629;stop-color:#000000" d="m 368.75,0.75 h 10.5 l 5.5,31 H 374.5 l -0.368,-4 H 363.93103 L 362,31.75 h -9.75 z m 3.75,9.25 -5.431,11.25 h 6.46548 z" id="path998-7"/>
    <path style="display:inline;fill:#000000;stroke-width:0.225239;stroke-opacity:0.28629;stop-color:#000000" d="m 454.75,0.75 h 10.5 l 5.5,31 H 460.5 l -0.368,-4 H 449.93103 L 448,31.75 h -9.75 z m 3.75,9.25 -5.431,11.25 h 6.46548 z" id="path998-6"/>
  </g>
</svg>
